<svg width="40" height="40" viewBox="0 0 40 40" fill="none" xmlns="http://www.w3.org/2000/svg">
<path d="M8.75 2.5C7.0924 2.5 5.50269 3.15848 4.33058 4.33058C3.15848 5.50268 2.5 7.0924 2.5 8.75V26.25C2.5 27.9076 3.15848 29.4973 4.33058 30.6694C5.50269 31.8415 7.0924 32.5 8.75 32.5H16.19C16.465 31.5975 16.8975 30.75 17.465 30H8.75C7.75544 30 6.80161 29.6049 6.09835 28.9016C5.39509 28.1984 5 27.2446 5 26.25V12.5H30V17.36L30.2575 17.1025C30.9225 16.4375 31.685 15.9275 32.5 15.58V8.75C32.5 7.0924 31.8415 5.50268 30.6694 4.33058C29.4973 3.15848 27.9076 2.5 26.25 2.5H8.75ZM19.865 27.4925L26.2425 21.1175C26.2123 20.834 26.0862 20.5694 25.885 20.3675L20.885 15.3675C20.6506 15.1328 20.3326 15.0008 20.0009 15.0006C19.6692 15.0003 19.351 15.1319 19.1163 15.3662C18.8815 15.6006 18.7495 15.9187 18.7493 16.2504C18.7491 16.5821 18.8806 16.9003 19.115 17.135L23.2325 21.25L19.115 25.365C18.948 25.5317 18.8316 25.7423 18.7793 25.9724C18.727 26.2025 18.7408 26.4427 18.8193 26.6652C18.8977 26.8877 19.0376 27.0835 19.2226 27.2299C19.4077 27.3763 19.6304 27.4674 19.865 27.4925ZM30 10H5V8.75C5 7.75544 5.39509 6.80161 6.09835 6.09835C6.80161 5.39509 7.75544 5 8.75 5H26.25C27.2446 5 28.1984 5.39509 28.9017 6.09835C29.6049 6.80161 30 7.75544 30 8.75V10ZM15.885 15.365C16.0014 15.4811 16.0938 15.6191 16.1568 15.7709C16.2198 15.9228 16.2522 16.0856 16.2522 16.25C16.2522 16.4144 16.2198 16.5772 16.1568 16.7291C16.0938 16.8809 16.0014 17.0189 15.885 17.135L11.7675 21.25L15.885 25.365C16.1197 25.5997 16.2516 25.9181 16.2516 26.25C16.2516 26.5819 16.1197 26.9003 15.885 27.135C15.6503 27.3697 15.3319 27.5016 15 27.5016C14.6681 27.5016 14.3497 27.3697 14.115 27.135L9.115 22.135C8.99859 22.0189 8.90623 21.8809 8.84322 21.7291C8.7802 21.5772 8.74777 21.4144 8.74777 21.25C8.74777 21.0856 8.7802 20.9228 8.84322 20.7709C8.90623 20.6191 8.99859 20.4811 9.115 20.365L14.115 15.365C14.2311 15.2486 14.3691 15.1562 14.5209 15.0932C14.6728 15.0302 14.8356 14.9978 15 14.9978C15.1644 14.9978 15.3272 15.0302 15.4791 15.0932C15.6309 15.1562 15.7689 15.2486 15.885 15.365ZM19.95 30.9425L32.025 18.8675C32.9022 17.991 34.0917 17.4988 35.3318 17.4993C36.5718 17.4997 37.761 17.9928 38.6375 18.87C39.514 19.7472 40.0062 20.9367 40.0057 22.1768C40.0053 23.4169 39.5122 24.606 38.635 25.4825L26.56 37.555C25.8563 38.2584 24.9751 38.7579 24.01 39L20.265 39.935C19.8926 40.0278 19.5026 40.0227 19.1327 39.9202C18.7629 39.8177 18.4259 39.6213 18.1544 39.3501C17.8829 39.0788 17.6862 38.742 17.5833 38.3722C17.4805 38.0025 17.475 37.6125 17.5675 37.24L18.505 33.495C18.7471 32.5299 19.2465 31.6486 19.95 30.945" fill="#CE0033"/>
</svg>
