<svg width="40" height="40" viewBox="0 0 40 40" fill="none" xmlns="http://www.w3.org/2000/svg">
<path d="M31.6667 31.6667H8.33333V13.3333H31.6667M26.6667 1.66667V5.00001H13.3333V1.66667H10V5.00001H8.33333C6.48333 5.00001 5 6.48334 5 8.33334V31.6667C5 32.5507 5.35119 33.3986 5.97631 34.0237C6.60143 34.6488 7.44928 35 8.33333 35H31.6667C32.5507 35 33.3986 34.6488 34.0237 34.0237C34.6488 33.3986 35 32.5507 35 31.6667V8.33334C35 7.44928 34.6488 6.60144 34.0237 5.97632C33.3986 5.35119 32.5507 5.00001 31.6667 5.00001H30V1.66667M28.3333 20H20V28.3333H28.3333V20Z" fill="#CE0033"/>
</svg>
