<svg width="24" height="25" viewBox="0 0 24 25" fill="none" xmlns="http://www.w3.org/2000/svg">
<g clip-path="url(#clip0_430_465)">
<path d="M0 18.5249V16.9499C0 16.2332 0.366667 15.6499 1.1 15.1999C1.83333 14.7499 2.8 14.5249 4 14.5249C4.21667 14.5249 4.425 14.5291 4.625 14.5374C4.825 14.5457 5.01667 14.5666 5.2 14.5999C4.96667 14.9499 4.79167 15.3166 4.675 15.6999C4.55833 16.0832 4.5 16.4832 4.5 16.8999V18.5249H0ZM6 18.5249V16.8999C6 16.3666 6.14583 15.8791 6.4375 15.4374C6.72917 14.9957 7.14167 14.6082 7.675 14.2749C8.20833 13.9416 8.84583 13.6916 9.5875 13.5249C10.3292 13.3582 11.1333 13.2749 12 13.2749C12.8833 13.2749 13.6958 13.3582 14.4375 13.5249C15.1792 13.6916 15.8167 13.9416 16.35 14.2749C16.8833 14.6082 17.2917 14.9957 17.575 15.4374C17.8583 15.8791 18 16.3666 18 16.8999V18.5249H6ZM19.5 18.5249V16.8999C19.5 16.4666 19.4458 16.0582 19.3375 15.6749C19.2292 15.2916 19.0667 14.9332 18.85 14.5999C19.0333 14.5666 19.2208 14.5457 19.4125 14.5374C19.6042 14.5291 19.8 14.5249 20 14.5249C21.2 14.5249 22.1667 14.7457 22.9 15.1874C23.6333 15.6291 24 16.2166 24 16.9499V18.5249H19.5ZM8.125 16.5249H15.9C15.7333 16.1916 15.2708 15.8999 14.5125 15.6499C13.7542 15.3999 12.9167 15.2749 12 15.2749C11.0833 15.2749 10.2458 15.3999 9.4875 15.6499C8.72917 15.8999 8.275 16.1916 8.125 16.5249ZM4 13.5249C3.45 13.5249 2.97917 13.3291 2.5875 12.9374C2.19583 12.5457 2 12.0749 2 11.5249C2 10.9582 2.19583 10.4832 2.5875 10.0999C2.97917 9.71657 3.45 9.5249 4 9.5249C4.56667 9.5249 5.04167 9.71657 5.425 10.0999C5.80833 10.4832 6 10.9582 6 11.5249C6 12.0749 5.80833 12.5457 5.425 12.9374C5.04167 13.3291 4.56667 13.5249 4 13.5249ZM20 13.5249C19.45 13.5249 18.9792 13.3291 18.5875 12.9374C18.1958 12.5457 18 12.0749 18 11.5249C18 10.9582 18.1958 10.4832 18.5875 10.0999C18.9792 9.71657 19.45 9.5249 20 9.5249C20.5667 9.5249 21.0417 9.71657 21.425 10.0999C21.8083 10.4832 22 10.9582 22 11.5249C22 12.0749 21.8083 12.5457 21.425 12.9374C21.0417 13.3291 20.5667 13.5249 20 13.5249ZM12 12.5249C11.1667 12.5249 10.4583 12.2332 9.875 11.6499C9.29167 11.0666 9 10.3582 9 9.5249C9 8.6749 9.29167 7.9624 9.875 7.3874C10.4583 6.8124 11.1667 6.5249 12 6.5249C12.85 6.5249 13.5625 6.8124 14.1375 7.3874C14.7125 7.9624 15 8.6749 15 9.5249C15 10.3582 14.7125 11.0666 14.1375 11.6499C13.5625 12.2332 12.85 12.5249 12 12.5249ZM12 10.5249C12.2833 10.5249 12.5208 10.4291 12.7125 10.2374C12.9042 10.0457 13 9.80824 13 9.5249C13 9.24157 12.9042 9.00407 12.7125 8.8124C12.5208 8.62074 12.2833 8.5249 12 8.5249C11.7167 8.5249 11.4792 8.62074 11.2875 8.8124C11.0958 9.00407 11 9.24157 11 9.5249C11 9.80824 11.0958 10.0457 11.2875 10.2374C11.4792 10.4291 11.7167 10.5249 12 10.5249Z" fill="#504DC1"/>
</g>
<defs>
<clipPath id="clip0_430_465">
<rect width="24" height="24" fill="white" transform="translate(0 0.524902)"/>
</clipPath>
</defs>
</svg>
