<svg width="40" height="40" viewBox="0 0 40 40" fill="none" xmlns="http://www.w3.org/2000/svg">
<rect width="40" height="40" rx="20" fill="#CE0033"/>
<path d="M27 12H13C12.2044 12 11.4413 12.3161 10.8787 12.8787C10.3161 13.4413 10 14.2044 10 15V25C10 25.7956 10.3161 26.5587 10.8787 27.1213C11.4413 27.6839 12.2044 28 13 28H27C27.7956 28 28.5587 27.6839 29.1213 27.1213C29.6839 26.5587 30 25.7956 30 25V15C30 14.2044 29.6839 13.4413 29.1213 12.8787C28.5587 12.3161 27.7956 12 27 12ZM26.427 14L20.6 18.8C20.4335 18.9267 20.2312 18.9976 20.022 19.0026C19.8129 19.0077 19.6074 18.9465 19.435 18.828L13.573 14H26.427ZM27 26H13C12.7348 26 12.4804 25.8946 12.2929 25.7071C12.1054 25.5196 12 25.2652 12 25V15.3L18.2 20.4C18.7159 20.7863 19.3435 20.9944 19.988 20.993C20.6551 20.992 21.3037 20.774 21.836 20.372L28 15.3V25C28 25.2652 27.8946 25.5196 27.7071 25.7071C27.5196 25.8946 27.2652 26 27 26Z" fill="white"/>
</svg>
