<svg width="40" height="40" viewBox="0 0 40 40" fill="none" xmlns="http://www.w3.org/2000/svg">
<rect width="40" height="40" rx="20" fill="#CE0033"/>
<path d="M27.44 21.0001C27.22 21.0001 26.99 20.9301 26.77 20.8801C26.3245 20.7819 25.8866 20.6516 25.46 20.4901C24.9961 20.3213 24.4861 20.3301 24.0283 20.5147C23.5704 20.6993 23.1971 21.0467 22.98 21.4901L22.76 21.9401C21.786 21.3983 20.891 20.7253 20.1 19.9401C19.3147 19.1491 18.6418 18.2541 18.1 17.2801L18.52 17.0001C18.9633 16.783 19.3108 16.4096 19.4954 15.9518C19.68 15.494 19.6888 14.984 19.52 14.5201C19.3612 14.0925 19.2309 13.6549 19.13 13.2101C19.08 12.9901 19.04 12.7601 19.01 12.5301C18.8885 11.8257 18.5196 11.1879 17.9696 10.7314C17.4196 10.2748 16.7247 10.0297 16.01 10.0401H13.01C12.579 10.0361 12.1522 10.1249 11.7587 10.3006C11.3651 10.4764 11.0141 10.7348 10.7294 11.0584C10.4447 11.382 10.2331 11.7631 10.109 12.1758C9.98482 12.5885 9.95106 13.0232 10.01 13.4501C10.5427 17.6395 12.456 21.532 15.4476 24.5127C18.4393 27.4935 22.3387 29.3926 26.53 29.9101H26.91C27.6474 29.9112 28.3594 29.6406 28.91 29.1501C29.2263 28.8672 29.4791 28.5203 29.6514 28.1324C29.8238 27.7446 29.9119 27.3245 29.91 26.9001V23.9001C29.8977 23.2055 29.6448 22.5367 29.1943 22.0078C28.7439 21.4789 28.1238 21.1227 27.44 21.0001ZM27.94 27.0001C27.9398 27.1421 27.9094 27.2824 27.8508 27.4117C27.7921 27.5411 27.7066 27.6564 27.6 27.7501C27.4882 27.8466 27.3576 27.9187 27.2164 27.9617C27.0752 28.0048 26.9265 28.0178 26.78 28.0001C23.0349 27.5199 19.5562 25.8066 16.8927 23.1304C14.2292 20.4542 12.5324 16.9674 12.07 13.2201C12.0541 13.0736 12.068 12.9254 12.111 12.7845C12.1539 12.6436 12.225 12.5128 12.32 12.4001C12.4137 12.2934 12.529 12.208 12.6584 12.1493C12.7877 12.0907 12.928 12.0603 13.07 12.0601H16.07C16.3025 12.0549 16.5296 12.131 16.7121 12.2752C16.8946 12.4194 17.0212 12.6227 17.07 12.8501C17.11 13.1234 17.16 13.3934 17.22 13.6601C17.3355 14.1873 17.4892 14.7053 17.68 15.2101L16.28 15.8601C16.1603 15.915 16.0526 15.9931 15.9631 16.0897C15.8737 16.1864 15.8042 16.2997 15.7586 16.4233C15.7131 16.5469 15.6925 16.6782 15.6978 16.8098C15.7032 16.9414 15.7345 17.0707 15.79 17.1901C17.2292 20.2729 19.7072 22.7509 22.79 24.1901C23.0334 24.2901 23.3065 24.2901 23.55 24.1901C23.6747 24.1455 23.7893 24.0766 23.8871 23.9873C23.985 23.898 24.0641 23.7902 24.12 23.6701L24.74 22.2701C25.2569 22.455 25.7846 22.6086 26.32 22.7301C26.5866 22.7901 26.8566 22.8401 27.13 22.8801C27.3574 22.9289 27.5607 23.0554 27.7049 23.238C27.8491 23.4205 27.9252 23.6476 27.92 23.8801L27.94 27.0001Z" fill="white"/>
</svg>
