<svg width="28" height="14" viewBox="0 0 28 14" fill="none" xmlns="http://www.w3.org/2000/svg">
<path d="M9.02321 11.4615L8.70587 12.1667H9.47917H18.55H19.359L18.9972 11.4431C18.8444 11.1373 18.5794 10.8944 18.2662 10.6969C17.9501 10.4975 17.5528 10.3243 17.0878 10.171C16.1457 9.86039 15.1149 9.70833 14 9.70833C12.8851 9.70833 11.8543 9.86039 10.9122 10.171C10.447 10.3243 10.0505 10.4981 9.73763 10.6991C9.42778 10.8981 9.16516 11.146 9.02321 11.4615ZM0.5 13.5V12.1625C0.5 11.5374 0.802791 11.0023 1.54484 10.547C2.29653 10.0857 3.32412 9.83333 4.66667 9.83333C4.86912 9.83333 5.06463 9.83653 5.25321 9.8429C5.14281 10.0755 5.05024 10.3141 4.97583 10.5586C4.82479 11.0549 4.75 11.5707 4.75 12.1042V13.5H0.5ZM7.5 13.5V12.1042C7.5 11.5791 7.6418 11.1063 7.92765 10.6734C8.22168 10.2282 8.64645 9.82361 9.21917 9.46567C9.78477 9.11216 10.4737 8.83908 11.295 8.6545C12.1197 8.46918 13.0207 8.375 14 8.375C14.9995 8.375 15.9101 8.46932 16.7341 8.6545C17.5555 8.83908 18.2444 9.11216 18.81 9.46567C19.3818 9.82304 19.7998 10.226 20.0833 10.6679C20.3613 11.1012 20.5 11.576 20.5 12.1042V13.5H7.5ZM23.25 13.5V12.1042C23.25 11.5566 23.1815 11.0342 23.0416 10.539C22.9739 10.2995 22.8898 10.0674 22.7893 9.84274C22.9672 9.83648 23.1485 9.83333 23.3333 9.83333C24.6772 9.83333 25.7062 10.0814 26.4587 10.5346C27.1938 10.9773 27.5 11.5144 27.5 12.1625V13.5H23.25ZM4.66667 7.66667C4.15866 7.66667 3.73623 7.49162 3.3723 7.1277C3.00838 6.76377 2.83333 6.34134 2.83333 5.83333C2.83333 5.30157 3.01124 4.87781 3.36848 4.52817C3.73161 4.17276 4.15522 4 4.66667 4C5.20186 4 5.62679 4.17556 5.97561 4.52439C6.32444 4.87321 6.5 5.29814 6.5 5.83333C6.5 6.34478 6.32724 6.76839 5.97183 7.13152C5.62219 7.48876 5.19843 7.66667 4.66667 7.66667ZM23.3333 7.66667C22.8253 7.66667 22.4029 7.49162 22.039 7.1277C21.675 6.76377 21.5 6.34134 21.5 5.83333C21.5 5.30157 21.6779 4.87781 22.0351 4.52817C22.3983 4.17276 22.8219 4 23.3333 4C23.8685 4 24.2935 4.17556 24.6423 4.52439C24.9911 4.87321 25.1667 5.29814 25.1667 5.83333C25.1667 6.34478 24.9939 6.76839 24.6385 7.13152C24.2889 7.48876 23.8651 7.66667 23.3333 7.66667ZM14 6.5C13.1589 6.5 12.4601 6.21134 11.8744 5.62561C11.2887 5.03989 11 4.34113 11 3.5C11 2.63654 11.2906 1.93531 11.8718 1.36234C12.457 0.785501 13.1566 0.5 14 0.5C14.8658 0.5 15.5678 0.787366 16.1402 1.3598C16.7126 1.93224 17 2.63425 17 3.5C17 4.34342 16.7145 5.04297 16.1377 5.62817C15.5647 6.20944 14.8635 6.5 14 6.5ZM14 5.16667C14.4565 5.16667 14.8628 5.00681 15.1848 4.6848C15.5068 4.3628 15.6667 3.95647 15.6667 3.5C15.6667 3.04353 15.5068 2.6372 15.1848 2.3152C14.8628 1.99319 14.4565 1.83333 14 1.83333C13.5435 1.83333 13.1372 1.99319 12.8152 2.3152C12.4932 2.6372 12.3333 3.04353 12.3333 3.5C12.3333 3.95647 12.4932 4.3628 12.8152 4.6848C13.1372 5.00681 13.5435 5.16667 14 5.16667Z" fill="#CE0033" stroke="#CE0033"/>
</svg>
