<svg width="26" height="21" viewBox="0 0 26 21" fill="none" xmlns="http://www.w3.org/2000/svg">
<path d="M25.1667 7.29682V15.8333H23.8333V8.28333V7.4377L23.0924 7.84523L20.759 9.12856L20.5 9.27103V9.56667V16.2692L12.8333 20.4311L5.16667 16.2692V9.56667V9.27103L4.90763 9.12856L1.04083 7.00182L12.8333 0.569544L25.1667 7.29682ZM12.5957 11.7566L12.8333 11.8849L13.071 11.7566L21.0626 7.43993L21.8771 7L21.0626 6.56007L13.071 2.24341L12.8333 2.11506L12.5957 2.24341L4.60404 6.56007L3.78959 7L4.60404 7.43993L12.5957 11.7566ZM12.5958 18.7858L12.8333 18.9141L13.0709 18.7858L18.9042 15.6358L19.1667 15.4941V15.1958V10.7917V9.94603L18.4257 10.3536L12.8333 13.4294L7.24096 10.3536L6.5 9.94603V10.7917V15.1958V15.4941L6.76243 15.6358L12.5958 18.7858Z" fill="#CE0033" stroke="#CE0033"/>
</svg>
