<svg width="22" height="22" viewBox="0 0 22 22" fill="none" xmlns="http://www.w3.org/2000/svg">
<path d="M2.25 19.25V19.75H2.75H19.25H19.75V19.25V18.15C19.75 17.81 19.6637 17.49 19.4876 17.2018C19.3177 16.9237 19.089 16.7017 18.8053 16.5442L18.7958 16.5389L18.7861 16.534C17.5175 15.8997 16.2337 15.4223 14.9348 15.1035C13.6358 14.7846 12.324 14.625 11 14.625C9.67605 14.625 8.36417 14.7846 7.06519 15.1035C5.76635 15.4223 4.48248 15.8997 3.21389 16.534L3.20418 16.5389L3.19468 16.5442C2.91105 16.7017 2.68233 16.9237 2.51242 17.2018L2.93906 17.4625L2.51242 17.2018C2.33629 17.49 2.25 17.81 2.25 18.15V19.25ZM11 10.5C9.62116 10.5 8.45324 10.0149 7.46918 9.03082C6.48512 8.04676 6 6.87884 6 5.5C6 4.12116 6.48512 2.95324 7.46918 1.96918C8.45324 0.985115 9.62116 0.5 11 0.5C12.3788 0.5 13.5468 0.985115 14.5308 1.96918C15.5149 2.95324 16 4.12116 16 5.5C16 6.87884 15.5149 8.04676 14.5308 9.03082C13.5468 10.0149 12.3788 10.5 11 10.5ZM0.5 21.5V18.15C0.5 17.4616 0.675778 16.8362 1.02765 16.2632C1.38168 15.6866 1.84645 15.2527 2.42678 14.9519C3.81462 14.2582 5.22189 13.7394 6.64894 13.3938C8.07699 13.0479 9.52706 12.875 11 12.875C12.4729 12.875 13.923 13.0479 15.3511 13.3938C16.7781 13.7394 18.1854 14.2582 19.5732 14.9519C20.1535 15.2527 20.6183 15.6866 20.9724 16.2632C21.3242 16.8362 21.5 17.4616 21.5 18.15V21.5H0.5ZM11 8.75C11.8899 8.75 12.6642 8.4273 13.2957 7.79574C13.9273 7.16418 14.25 6.38991 14.25 5.5C14.25 4.61009 13.9273 3.83582 13.2957 3.20426C12.6642 2.5727 11.8899 2.25 11 2.25C10.1101 2.25 9.33582 2.5727 8.70426 3.20426C8.0727 3.83582 7.75 4.61009 7.75 5.5C7.75 6.38991 8.0727 7.16418 8.70426 7.79574C9.33582 8.4273 10.1101 8.75 11 8.75Z" fill="#CE0033" stroke="#CE0033"/>
</svg>
