<svg width="26" height="22" viewBox="0 0 26 22" fill="none" xmlns="http://www.w3.org/2000/svg">
<path d="M25.3332 7.79682V16.3333H23.9998V8.78333V7.9377L23.2589 8.34523L20.9255 9.62856L20.6665 9.77103V10.0667V16.7692L12.9998 20.9311L5.33317 16.7692V10.0667V9.77103L5.07413 9.62856L1.20733 7.50182L12.9998 1.06954L25.3332 7.79682ZM12.7622 12.2566L12.9998 12.3849L13.2375 12.2566L21.2291 7.93993L22.0436 7.5L21.2291 7.06007L13.2375 2.74341L12.9998 2.61506L12.7622 2.74341L4.77055 7.06007L3.95609 7.5L4.77055 7.93993L12.7622 12.2566ZM12.7623 19.2858L12.9998 19.4141L13.2374 19.2858L19.0707 16.1358L19.3332 15.9941V15.6958V11.2917V10.446L18.5922 10.8536L12.9998 13.9294L7.40746 10.8536L6.6665 10.446V11.2917V15.6958V15.9941L6.92893 16.1358L12.7623 19.2858Z" fill="#CE0033" stroke="#CE0033"/>
</svg>
