<svg width="30" height="30" viewBox="0 0 30 30" fill="none" xmlns="http://www.w3.org/2000/svg">
<path d="M26.059 18.5693L20.5383 16.0955L20.5231 16.0884C20.2365 15.9659 19.9238 15.9167 19.6134 15.9453C19.303 15.974 19.0047 16.0795 18.7453 16.2525C18.7148 16.2726 18.6854 16.2946 18.6574 16.3181L15.8051 18.7498C13.9981 17.872 12.1324 16.0205 11.2547 14.2369L13.6899 11.3412C13.7133 11.3119 13.7356 11.2826 13.7567 11.2509C13.9259 10.9923 14.0286 10.6958 14.0556 10.3879C14.0826 10.08 14.033 9.77022 13.9113 9.48609V9.47203L11.4305 3.94195C11.2696 3.57078 10.993 3.26158 10.642 3.06051C10.291 2.85944 9.88437 2.7773 9.48282 2.82633C7.8949 3.03528 6.43733 3.81512 5.38235 5.02019C4.32738 6.22526 3.74714 7.77315 3.75001 9.37476C3.75001 18.6795 11.3203 26.2498 20.625 26.2498C22.2266 26.2526 23.7745 25.6724 24.9796 24.6174C26.1847 23.5624 26.9645 22.1049 27.1734 20.517C27.2226 20.1155 27.1406 19.709 26.9397 19.358C26.7389 19.007 26.4299 18.7303 26.059 18.5693ZM20.625 24.3748C16.6481 24.3704 12.8353 22.7887 10.0232 19.9766C7.2111 17.1645 5.62935 13.3517 5.62501 9.37476C5.6206 8.23041 6.03288 7.12359 6.78486 6.26098C7.53683 5.39838 8.57708 4.83898 9.71134 4.68726C9.71087 4.69194 9.71087 4.69665 9.71134 4.70133L12.1723 10.2091L9.75001 13.1084C9.72537 13.1366 9.70304 13.1668 9.68321 13.1986C9.50686 13.4692 9.40341 13.7808 9.38288 14.1031C9.36235 14.4255 9.42543 14.7476 9.56603 15.0384C10.6277 17.2099 12.8156 19.3814 15.0106 20.4419C15.3035 20.5812 15.6275 20.6421 15.951 20.6187C16.2745 20.5953 16.5864 20.4884 16.8563 20.3084C16.8864 20.2882 16.9154 20.2663 16.943 20.2427L19.7918 17.8123L25.2996 20.2791H25.3125C25.1626 21.4149 24.6041 22.4573 23.7413 23.2111C22.8786 23.9649 21.7707 24.3786 20.625 24.3748Z" fill="white"/>
</svg>
